# xmcd CD database file
#
# Track frame offsets:
#	150
#	18529
#	36557
#	55494
#	75154
#	92620
#	113115
#	131864
#	152946
#	169635
#	189941
#	209450
#	230205
#	248028
#
# Disc length: 3571 seconds
#
# Revision: 1
# Processed by: cddbd v1.4PL0 Copyright (c) Steve Scherf et al.
# Submitted via: CDex 1.50Beta7
#
DISCID=bd0df10e
DTITLE=Huey Dumbar - Con cada beso
DYEAR=2002
DGENRE=Salsa
TTITLE0=Yo Si Me Enamoré
TTITLE1=Con cada beso (Ballad Version)
TTITLE2=Lo Siento
TTITLE3=A Cambio de Que
TTITLE4=Ella
TTITLE5=Lo Siento (Ballad version)
TTITLE6=Chikicha
TTITLE7=Amor de Siempre
TTITLE8=Con Cada Beso
TTITLE9=Yo Necesito Un Milagro
TTITLE10=Yo Si Enamore
TTITLE11=bonus track 12 ?
TTITLE12=bonus track 13 ?
TTITLE13=bonus track 14 ?
EXTD=YEAR: 2002
EXTT0=
EXTT1=
EXTT2=
EXTT3=
EXTT4=
EXTT5=
EXTT6=
EXTT7=
EXTT8=
EXTT9=
EXTT10=
EXTT11=
EXTT12=
EXTT13=
PLAYORDER=
